       <svg class="svg-map" data-id="map-1" xmlns="http://www.w3.org/2000/svg" width="2048" height="1024" viewBox="0 0 2048 1024">
                <path data-name="Фигура 1" class="cls-1" d="M292,1037S443.877,760.011,647,582L756,691,884,576l24,77s62.951-31.932,107-32l2,4s146.47-29.933,161-36,11.44,1.183,25-11,37.65-37.56,47-41,76,156,76,156,47.56-3.062,179,35l208,63s42.96-143.81,53-157,25.95-64.2,26-68,0,2,0,2,130.12-4.949,150-8,97.26-6.326,113-4"/>
                <path data-name="Фигура 3" class="cls-1" d="M1904-6s-6.63,49.423-8,60-6,49-6,49-26.3,180.866-26,188,0,7,0,7-236.64-4.365-245-4,4,154,4,154l-77,2s2.99,19.305-2,23,3.18,11.805,3,18,0,116,0,116-51,4.849-58,5-2,18-2,18-105.05-9.242-109-9-38,0-38,0l-7-24-40,16,18,41L1135,754s33.91,38.935,18,59-52,43-52,43-12.19.085-14,0-92,68-92,68-8.8.867-19,12-60,92-60,92"/>
                <path data-name="Фигура 4" class="cls-1" d="M298-6l28,23L287,58,387,166l-63,63L464,383l70-64,84,88,40-41,81,90s165.646-94.084,242-116,154-32,154-32l116,229s40.27-26.009,56-29,113.84-14.033,123-9l2,93,61,6-2,14s78.47-9.473,133-1c0,0-15.18,119.4,6,153l101,31s-12.76,109.682-5,113c0,0,104.63,13.546,138,17s103,17,103,17-31.9,82.06-37,88"/>
                <path data-name="Фигура 5" class="cls-1" d="M1293,1027l-62-111-19-31L1057,988s-35.41-48.044-73-78-100-95-100-95l-62-62-71,49-35-45-15-1-76,58s-32.554-14.514-46-8-113.353,80.845-119,87-29.007-34.438-44-44c0,0-1.64-10.346-15-16s-34-23-34-23l-70-94L473,544,335,410l39-37L277,273,438,111s40.968,38.6,41,43L617-10"/>
                <path data-name="Фигура 6" class="cls-1" d="M1498-20s-66.97,83.057-72,91-48,62-48,62l-44,41s66.13,48.5,107,52,88-2,88-2l7,56s-151.33,5.792-179,17l-149,14s-24.27-14.187-65-7c0,0-125.21,28.353-166,38,0,0-10.783,10.379-24-48s-39-167-39-167-133.649,24.416-187,88L618,113,482,261l-65,65L202,107s-32.67,37.354-42,44S-15,259-15,259"/>
                <path data-name="Фигура 2" class="cls-1" d="M1039-4l100,322s-138.77,28.06-160,41-94.242,55.153-99,58S768.85,472,691,534l7,7-47,38s-88.632-97-100-108c0,0-116.165,114.367-122,120s-90-89-90-89S232.516,610.558,224,615c0,0-22.994-37.881-43.116-49.51q-1.453-.84-2.884-1.49c-20.739-9.383-102.019,9.576-116,10S-5,563-5,563"/>
                <path data-name="Фигура 7" class="cls-1" d="M98,1029l1,2s2.986-45.59-7-55-13-13-13-13,64.545-57.255,99-119l5-6s-76.227-43.539-78-46c0,0,24.235-32.7,24-36l-20-18s4.219-17.249,25-18h4s10.815-20.48,15-21l24,10s13.724-32.644,25-31,12,5,12,5l7-11s26.725-13.515,30-19c0,0-54.444-80.467-70-87s-3-3-3-3L338,406s-79.658-65.89-95-97L345,206l-71-76,39-45-10-9,43-43,59,50L492-21"/>
                <path data-name="Фигура 8" class="cls-1" d="M2067,150s-67.95,7.764-75,8-26,0-26,0-4.93-7.1-7,25-1,34-1,34l-25-1s0.89,88.377-6,96c0,0-60.67-13.984-80-15,0,0-22.96-15.757-126-20h-78s6.54,88.869,9,111,38,315,38,315l-25,42-151-38s-14.42,33.564-27,42-79,84-79,84l43,93s59.14-22.7,115-10c0,0,12.4-2.95,13,6s1,104,1,104"/>
                <path data-name="Фигура 9" class="cls-1" d="M650,1029S768.751,928.92,804,916c0,0,11.355-7.891,24,15,0,0,68.785-50.835,91-86l-33-33s67.645-69.243,102-80,44-20,44-20L983,465l55-12a18.879,18.879,0,0,0,4-20c-4.4-12.274-7-11-7-11s-13.7-6.193-14.04-21.857c-0.01-.695,0-1.41.04-2.143,0,0,81.69-20.453,92-24,0,0,7.1-6.293,12,6s5,14,5,14l-11,7s4.13,28.395,24,22,38-19,38-19l-28-67s162.12-20.633,180-21,44.5,2.367,85,1,191-15,191-15-82.94-158.176,17-310"/>
                <path data-name="Фигура 10" class="cls-1" d="M-9,264l135,81,26-44s36.136,16.589,41,18,24,17,24,17L128,465l13,14s14.153-13.733,34,3,30,31,30,31l25-26,16,7,92-86L513,594l-28,21s-8.346,5.128,11,20l15,13s8.477,8.718-3,21l-11,20,30,25s95.757-107.645,122-129l359,349,86-72s60.97-45.391,79-53,153-114,153-114,71.59,110.621,81,137,76,177.08,77,193"/>
                <path data-name="Фигура 11" class="cls-1" d="M1291-12l-13,36,147,47-47,61s31.46,41.933,148,27l10,139s194.73,3.161,230,7l29,207,86-4s111.79-13.255,167-7"/>
                <path data-name="Фигура 12" class="cls-1" d="M2068,657s-19.12-8.761-34-5-202.33,21.169-225,16l-47-26-39,123s-315.3-91.669-398-92c0,0-14.99-20.86-32.26-57.3q-0.87-1.823-1.74-3.7c-18-38.725-158-303-158-303s-196.267,36.481-232,60l-8-1L619,113,730-18"/>
                <path data-name="Фигура 13" class="cls-1" d="M503,1035l39-31-9-15,68-33-48-71,102-35-31-38,74-53s2.609-42.8,53-73l5,5S875.52,578.873,883,576s-69-114-69-114,138.973-78.274,189-92,141-31,141-31l-62-219-15-45s34.32-6.659,41-19,19-68,19-68"/>
                <path data-name="Фигура 14" class="cls-1" d="M857-12s38.863,80.855,60,166,45,173,45,173-3.617,24.535,47,10,111.97-38.829,122-27,109,207,109,207,34.27-33.588,38-49c0,0,62.51-1.121,82-3s74-7,74-7,4.55,9.113,5,17-0.78,24.578-5,25,0,92,0,92l58,6-30,97s-111.25-25.413-140-22l63,126s-74.3,59.838-78,62-75,52-75,52l65,118"/>
                <path data-name="Фигура 15" class="cls-1" d="M2004-13s-10.76,179.234-9,211,2.73,132.292,2,134-142.38-48.948-375-46c0,0,.33,292.4,2,320s-2.62,134.3,7,157c0,0,9.13,4.933,4,14s-72,138-72,138,114.29,32.323,158,32l-1,90"/>
                <path data-name="Фигура 16" class="cls-1" d="M2053,445s-10.28-5.555-17-6-15.63-4.735-17,2-4,30-4,30-1.2,5.558-4,7-6,7-6,7v15l-208,17s-45.5,214.316-74,244l-57-14-65,132s116.35,24.886,124,27,125,16,125,16,1.88-108.586,2-112,0-3,0-3,133.28,2.363,149,2,45-.765,56,2"/>
                <path data-name="Фигура 17" class="cls-1" d="M2056,775s-92.89,14.445-139,15-150.12-10.626-194-29-165.93-42.576-232-60-166-31-166-31l-82-154s38.01-43.951,39-47,0,4,0,4,143.96-9.446,153-12l-13-163s1.46-6.908-12-5-190,17-190,17l-15-24s79.42-84.846,85-89,45.81-20.982,46-23,53-58,53-58-36.06-8.881-45-10-18.91-6.784-19-11-41-6-41-6-20.3-25.106,1-61L1191-7"/>
                <path data-name="Фигура 18" class="cls-1" d="M844,1027S953.252,893.991,962,883s80.94-68.341,87-76l-32-180L996,525l-54,19s-54.7,24.193-57,30S758,692,758,692L645,582,465,382l106-99,11,9,73-78-54-51s12.39-27.017,29-12l6,4,13-13L559,61l74-90"/>
                <path data-name="Фигура 19" class="cls-1" d="M303,1027s42.386-80,102-159S596.331,629.2,645,586c0,0,6.742-4.245-2-13s-95-103-95-103L770,256l-79-75s47.32-58.538,58-59,26,2,26,2,26.762-13.74,28-18-6-25-6-25a9.514,9.514,0,0,1-11-6c-3.216-7.907-11-28-11-28L866,8l-6-33"/>
                <path data-name="Фигура 20" class="cls-1" d="M-8,817l143,86s95.9-134.584,115-179,22-44,22-44-59.888-87.041-94-115l-73-67L240,310l-51-56,33-35-65-71,46-47L72-12"/>
                <path data-name="Фигура 21" class="cls-1" d="M-9,668S88.5,519.775,105,497,229.194,319.541,239,310s38-38,38-38L388,166,530,317l44-35,83,85,81,89s-113.265,74.974-122,89c0,0,174.9,176.615,185,187S958.714,879.187,960,883s103.94,105.8,107,143"/>
                <path data-name="Фигура 22" class="cls-1" d="M1910-12l-10,42L1788,17s-8.73,44.506-14,46c0,0,1.36,13.4,2,40s-6,123-6,123l-6,59s-99.87-8.614-239-1-300.64,25.132-318,24-33-9-52-7c0,0-29.38-111.121-30-114s-6.83-10.97-4-26c0,0-2.53-9.917-8-11s-6-13-6-13,5.12-3.429,15-2,13.81-2.883,12-9-18-48-18-48,0.65-.293-10,3c0,0-5.94,3.84-8-3,0,0-14.23,1.817-10,10,0,0,.73,4.855,6,3s6.91-4.281,10,7,3,16,3,16-21.23,7.746-23,9-46-133-46-133"/>
            </svg>
            <svg class="svg-map" data-id="map-2" xmlns="http://www.w3.org/2000/svg" width="2048" height="1024" viewBox="0 0 2048 1024">
                <path data-name="Фигура 1" class="cls-1" d="M1651-9l3,41s52.03,55.3,31,83-46,51-46,51l45,76-52,56-48-47s-34.36,28.3-44,50-23.53,47.337-21,61,0.91,21.277-4,33-14.74,36.369-1,52,66,52,66,52l-57,72-13-6-46,3s-7.83,41.781-9,42-28-12-28-12-3.72,34.981-29,27-25.42,5.033-29,12a154.011,154.011,0,0,0-7,17l-20,7s-34.5,38.4-76,52l-7,4,5,20s-17.09,7.618-23,15l-35-13,12-91s-40.89-6.239-66-16-35-15-35-15-18.3-17.783-27-28-13-16-13-16,10.43-21.7,14-23-13.79-4.335-15-6,8.45-20.469,12-29,4.12-17.425,3-17l-20,9-11-5s-25.2,19.2-27,20-19.09,6.978-20,5-13.892-34.6-34-55c0,0-2.574-5.638-14,7s-75.632,46.067-75,52"/>
                <path data-name="Фигура 2" class="cls-1" d="M244,1031s18.895-30.9,28-35,43-32,43-32l-17-18,24-22s-15.587-14.42,5-36,39.3-45.169,55-52,6.319-3.293,9-6,23.532-32.5,32-44a86.047,86.047,0,0,0,12-23s8.76-37.332,12-39,56-18,56-18,12.212,80.336,18,88,3.2,4.872,6,5,36-27,36-27,33.254,39.705,51,48c0,0,6.921-28,15-42s5.709-9.714,16-19,14-16,14-16-30.066-16.493-30-18,8.885-10.348,15-13c5.468-2.372,33.521-18.61,41.916-22.272A9.058,9.058,0,0,1,688,689c3.523-.353,10.6,12.272,15,17s33,21,33,21,7.047-33.771,17-49,24.307-33.31,28-36,86-38.294,124-41c0,0-1.271-2.227,0-21,2.362-34.881-16-47-16-47"/>
                <path data-name="Фигура 3" class="cls-1" d="M-4,132l53,21,24-19,10,12,46-39,22,24,24-22s13.906,13.195,23,16,13.562,6.289,14,9-1,19-1,19,9.9-.811,11,7-6.107,17.459-8,17,11,56,11,56,42.286,6.056,48,6,49,8,49,8,79.125-58.311,89-58,14.506,2.677,18,3,21.976-14.124,25-14,42,49,42,49l-25,39s-14.93,23.488-15,26-2,7-2,7,45.119,29.711,49,30,29.191-45.269,33-52,18.166,26.764,24,31,14,10,14,10-30.017,35.948-28,41,40,35,40,35l32-21,16,45s28.183-33.066,33-42,44-51,44-51,36.8,39.669,57,77,20.583,42.528,34,61l14,11s-24.857,31.432-30,45-8.789,29.718-13,37-16.932,36.967-14,49,11.549,8.369,13,15,11,22,11,22,77.007-34.853,106-38l16-3s8.1-45.549-14-67"/>
                <path data-name="Фигура 4" class="cls-1" d="M1447-38l-87,83,136,115-92,44,17,29-7,5,40,9,3,20-27,2s-4.95,54.67-7,59,40,12,40,12l-1,25s-77.91-14.356-89-23l-10-23s-20.19,11.633-34,11-51,3-51,3l-12-11-41,28s11.76,56.592,12,61-53.96,12.9-56,13,0.07-9.713-15-26l-10-14-13,3-21,17s3.45,23.859,3,26l-47,10s4.68-35.284-7-45-27-20-27-20-6.33-8.616-26,11c-18.583,18.53-23.417,26.47-34,17l-8,12,6,19-11,26s10.332,11.987,8,12-83.207,54.334-87,59"/>
                <path data-name="Фигура 5" class="cls-1" d="M2055,600s-23.57,3.052-24,8,0.47,17.036-6,22-25.67,11.3-29,17-7,16-7,16-27.98-10.67-32-18-63-33-63-33-41.24,14.251-43,15-20-58-20-58l-172,62s5.28,31.956,2,39,8.35,18.227,7,30-9.04,80.594-9,91-7.37,29.858,18,37l-2,14-53-14s1.99-9.3,0-11-72.61-47.677-76-49-47.7-20.627-55-24-21.24,52.623-21,57-76-12-76-12-22.93,48.882-23,55-15.38,35.8-18,40-16,26-16,26-9.04,9.2-31,15-86,31-86,31l-37,30s-16.18,9.3-13,0,3-7,3-7l-93-41-18-29s-5.47.338-6-3-23-64-23-64l-18,6,1,9-49,5-25,11-1-7-34,3,2-105s-50.079.53-56,3-12.137-28.837-22-45l-10,9s-12.647-32.733-13-35,5.089-4.817,6-7,35.206-33.459,44-32,9.4,3.746,11,9l43-7-1-39s0.5-69.641-19-86"/>
                <path data-name="Фигура 6" class="cls-1" d="M-14,291s142.347,33.937,159,39,157,39,157,39,134.629,33.006,143,36,7.833,8,8,13,4,56.432-21,90c0,0-23.6,36.286-16,39s48,3,48,3,89.366-.809,107-1,101-6,101-6-3.413,16.376,6,26,27.573,17.964,32,20,45,22,45,22,12.147-.321,17,3,17.64,18.236,18,21,66.963-22.972,97-30l20-3s3.58-58.6-14-68"/>
                <path data-name="Фигура 7" class="cls-1" d="M345-15S575.88,170.106,628,247c0,0,76.847,73.464,83,79s3,3,3,3,2.07,11.689,21-2,60.458-49.533,65-50,35.783,4.982,51,10,56.831,17.432,67,18,54.879,0.325,57,1-0.654,11.9-3,15-16.23,27.488-18,37-33.828,62.1-29,73,25.41,24.283,36,44l3,5s-48.919,30.4-71,48"/>
                <path data-name="Фигура 8" class="cls-1" d="M630-12s63.65,114.212,72,172l8,41s4.424-13.471,121-18,120.253,1.091,150,8,106.62,35.823,117,45c0,0-69.21,78.364-71,81s-21.56-17.235-52-9c0,0-41.75,92.638-48,108s2.928,23.806,10,31,60.565,67.626,62,77-6.169,18.053-15,21-53.167.108-74,11c0,0-4.512,1.768-10-8s-10-14-10-14"/>
                <path data-name="Фигура 9" class="cls-1" d="M889-13s19.528,20.969,11,51-11,38-11,38,36.075,17.672,46,17,55,1,55,1-2.78,193.073-12,211c0,0,31.76-5.331,74,37s59.23,74.24,62,87c0,0-35.95,10.453-59,20s-32.33,12.011-50,11c0,0-39.373,8.017-114,68"/>
                <path data-name="Фигура 10" class="cls-1" d="M1418-12s-104.35,97.107-129,113-88.58,51.164-105,59c0,0-30.14,4.863-61,49l-24,30s80.68,20.721,126,110c0,0,20.53,86.275,15,119s-21.48,110.762-19,118c0,0-35.34,8.573-65,16,0,0-60.94,2.8-93,32l-3,2s-52.83-33.333-82-34l-64-3s-2.776-56.228-23-68"/>
                <path data-name="Фигура 11" class="cls-1" d="M1632-25s20.82,54.971-36,90c0,0-13.98,11.748-38,39,0,0-51.28,50.416-55,53,0,0,68.39,83.7,73,91,0,0,13.78,53.635,12,94s-9.16,142.99,13,189,54,100,54,100l3,1s-180.15,23.271-190,25-30.76-10.014-90-3c0,0-17.47,8.7-55,1,0,0-50.91-17.729-102-7,0,0-72.6-13.3-98-26,0,0-36.34-33.49-56-66,0,0-9.67-12.721-24-21l-11-15-37,17s-10.007,10.686-37,9c0,0-27.922-.062-49,9l-15-24"/>
                <path data-name="Фигура 12" class="cls-1" d="M1880-12s5.53,53.528-5,69-10,16-10,16V87l-91,78s-31.23,30.326-39,38-22.77,25.964-28,27-19,7-19,7-6.43,8.329,7,19,30,31,30,31-1.75,22.164,2,25,8,9,8,9-6.79,2.808-11,4-22.68,17.62-25,19,0,2,0,2l-26-22-72,111-76-49s-29.28-16.29-47-18c0,0-14.28-2.554-16,0s-15,61-15,61-29.81-5.839-54-3-25.22,18.041-33,32-4,9-4,9l-49,7s1.86,14.982-3,15l-1,21-15,10s-44.51-11.972-61-12c0,0-22.12,6.119-34,22,0,0-23.64,13.541-68,14l-37,4-42-12-12-16s-29,14.962-40,19-36.5,9.224-51,9-36,10-36,10l-19-28"/>
                <path data-name="Фигура 13" class="cls-1" d="M2077,47L1959,83s-23.49,7.053-51-2-42.94-16.581-43-7-4,15-4,15l-84,74s41.36,89.92,48,104,18.26,84.706,18,91-23,67-23,67l-24-16-28,37-8-4-37,63-123-71-36,54-45-36s-60.91,64.83-70,89l-22,57s-1.39,22.584-20,26-24.54-9.043-32,1-15.35,31.077-17,32c0,0-21.69,3.924-61-8l-79-3V585s-24.24,10.023-50,13l-56,12s-43.17,16.314-53,25c0,0-46.34-40.452-142-38,0,0-10.244-63.779-26-66"/>
                <path data-name="Фигура 14" class="cls-1" d="M2082,484L1657,631l-194,23-69,134s-86.99,9.673-187-52l-66,81s-14.43-81.9-41-119c0,0-18.54-44.486-61-71l-51-21s16.85-76,13-85c0,0-30.924-37.164-36-42l-73,52"/>
                <path data-name="Фигура 15" class="cls-1" d="M2080,944s-22.08-21.759-76-19-71.61,23.039-134,3-179.74-81.568-189-86c0,0-53.17-12.769-70-13s-215-41-215-41-38.08,91.686-44,94L1209,744s-0.16-11.283,3-32,10.29-119.143,7-123c0,0-78.89,13.06-106,20,0,0-75.18-84.85-77-89s-37.109,24.1-72,24c0,0-48.1,6.155-58,11l-11-25"/>
                <path data-name="Фигура 16" class="cls-1" d="M1788,1050l-77-117s-91.32,13.741-106,7l-6,17s-7.33,7.56-16,1-52.66-58.513-68-61c0,0-55.86,3.955-58,4s-20-44-20-44l-63,52-25-27s-8.89,9.289-20,20-51.02,31.224-60,31c0,0-75.8-149.163-79-168,0,0,17.94-31.156,20-40s7-78,7-78-88.49-18.723-105-35-78-91-78-91-34.071,10.731-42,16-71.839,13.41-84,19l-17-25"/>
                <path data-name="Фигура 17" class="cls-1" d="M1580,1042s-82.27-29.03-117-53l-80-65s-54.36-15.322-74-24c0,0-21.22-14.245-51-65,0,0-43.02-50.262-50-87,0,0-.12-15.312,1-17,0,0-33.42-21.775-43-28s-14.48-10.444-16-25c0,0-20.5-43.331-29-55s-9-12-9-12-72.73-88.457-76-89-41.949,19.3-52,20-59.89,4.312-76,14l-16-25"/>
                <path data-name="Фигура 18" class="cls-1" d="M888,1038s22.1-125.237,20-178c0,0,10.05-148.963,5-164,0,0-3.928-95.514-5-111s-12-51-12-51"/>
                <path data-name="Фигура 19" class="cls-1" d="M981,1028s-8.912-31.552-9-38-13.072-61.857-14-73-4-32-4-32H941s8-86.31,8-105-0.263-70.432-7-84-18-33-18-33H912s-1.626-106.887-17-130"/>
                <path data-name="Фигура 20" class="cls-1" d="M728,1031c-0.315-2.31,21.319-32.7,35-42s25.242-12.661,25-31-4.5-52.117,7-84,28.377-90.463,34-101,3.673-10.777-1-23-33-92-33-92,45.3-27.5,72-31,39-5,39-5,6.837,3.43,6-6-3.151-76.978-18-85"/>
                <path data-name="Фигура 21" class="cls-1" d="M453,1034s38.763-48.792,50-59,60.6-36.77,70-45,25.294-51.544,28-58,13.451-54.748,20-72,37.206-56.338,40-61,25.722-43.045,30-47,40.778-35.436,47-48,17.586-30.093,25-29,18.87,24.093,31,20,104.1-32.808,106-33,8.954-3.788,9-9-3.742-52.87-19-61"/>
                <path data-name="Фигура 22" class="cls-1" d="M118,1027s15.945-28.509,37-34,53.635-18.64,86-58,93.371-79.9,100-91,43.436-87.831,50-97,33-71,33-71,42.081-1.4,64-21l28-13,9,19s19.219-10.319,28-11,60-11,60-11,4.034-2.459,12-1a74.658,74.658,0,0,1,14,4l-5-96s52.117-4.795,74-1,60.335,6.879,63,9c0,0,23.327-50.729,36-70s33.256-36.935,37-38,67.066-21.867,75-19,44.835,46.68,45,49-74,54-74,54"/>
                <path data-name="Фигура 23" class="cls-1" d="M-27,793s59.424-23.112,72-35S199.613,655.234,224,645s183-93,183-93l91,1s12.083-104.4,17-114c0,0,29.129,14.335,48,18s65.07,14.029,81,7c0,0,2.466-3.066,14,0s54.443,11.7,65,16,27,14,27,14,30.42-44.937,39-48c0,0,22.568,27.851,25,28s16.156-28.7,62-39,45.882-8.822,48-6,37.049,45.356,38,48-70,50-70,50"/>
                <path data-name="Фигура 24" class="cls-1" d="M-9,518s41.1-15.264,53-19,70.788-32.791,81-35,73.305-21.693,91-23,47.952-1.319,52-7,24.8-66.2,31-66,92.308,26.644,102,28,50.285,7.436,53,12,4.954-5,13-1,14.363,19.819,27,24,20,6,20,6l3-8s30.359,8.511,49,13,78,19,78,19,4.035,13.327,9,23,13.484,42.087,18,60-6.938,22.4,14,34,64.468,30.714,78,35,22.378,19.1,24,23,81.362-25.3,92-30,31.861-3.26,31-11-1.987-44.9-18-62"/>
                <path data-name="Фигура 25" class="cls-1" d="M-22,606c2.144,1.025,64.3-33.767,74-38s82.753-38.283,87-42,7.36-32.953,23-35,93-15,93-15,42.691-6.278,44-6,0.288-31.235,3-31,21,0,21,0l9-23,20,8,8-16,13,7s47.105,24.426,57,24,23,3,23,3,6.695-3.517,8-2,14.124,8.687,18,9,23.057,2.923,27,4,8-2,8-2l35,25s38.277,30.274,44,32,45.442,22.659,52,28,7,8,7,8l20-1s100.867,10.525,102,11-21.409,36.137-15,54c0,0,23.28,13.249,27,24s1,6,1,6,116.285-36.532,119-37,3.178-48.838-11-67"/>
                <path data-name="Фигура 26" class="cls-1" d="M813-7s6.581,32.738,4,38-10,11-10,11-84.319,7.063-91,19c0,0,12.424,44.032,14,49s24.567,75.783,31,89,36.946,74.851,39,77,16.574,24.352,19,32,33.474,101.967,40,116,7,15,7,15,41.766-16.532,55-10,41,49,41,49l-71,52"/>
                <path data-name="Фигура 27" class="cls-1" d="M1080-12s5.31,30.286,11,44-6.54,18,11,33,31.03,27.8,38,39,19.14,30.057,27,38,16.89,15.486,19,22-1.03,67.029-23,101c0,0-31.4,16.314-34,16l-18-11-74,58s-28.09-19.486-45-19c0,0-12.114,69.343-12,82l1,10s2.714,3.229,0,5-3.286.514-3,8,4,19,4,19l-11,27,7,11-82,55"/>
            </svg>
            <svg class="svg-map" data-id="map-2.1" xmlns="http://www.w3.org/2000/svg" width="2048" height="1024" viewBox="0 0 2048 1024">
                <path data-name="Фигура 1" class="cls-1" d="M-10,780s36.389-9.352,68-30,78.292-58.654,114-76,79.066-14.962,97-12,79.484,21.994,122,15,69.931-2.4,81-9a68.05,68.05,0,0,0,18-16l12-122s9.62-87.57,13-99,34.042-100.747,65-123c0,0,47.743-54.425,53-60,0,0,51.707-47.149,123-59,0,0-39.362-117.83-39-127,0,0-2.145-3.729,9-6s86-17,86-17,10.172-4.868,7-18-3-28-3-28"/>
                <path data-name="Фигура 2" class="cls-1" d="M-9,596s56.6-22.839,71-31,76-40,76-40,12.8-30.5,24-33,93-14,93-14,40.078-5.214,45-7l2-32h22l7-22,50,21,7-17,40,18,25,2,1-36s10.727-26.941,7-32a46.7,46.7,0,0,1-5-8s29.246-13,45-33,32.355-47.1,35-55c0,0-10.583-22.26-20-31,0,0,6.24-10.9,14-18s43-42,43-42l-23-24,15-17,13-12-8-7,34-41-11-8,14-16L592,46,556-4"/>
                <path data-name="Фигура 3" class="cls-1" d="M-49,282l349,84,153,41s9.854-4.311,17,3,32.359,23.082,42,26,29.234,21.588,57,22c0,0,46.145,12.755,75,7l12-3s47,11.987,59,16a170.461,170.461,0,0,1,20,8s23.407-45.536,47-51l33,40s21.865-25.863,29-29,69.054-21.757,76-18,43,52,43,52,19.366-19.466,49-19,30.87-9.139,39-11,56.23-17.7,78-22,29.41-16.438,36-23,35.04-46.189,64-59,71.73-46.6,82-54,87.53-83.189,90-85,12.04-8.254,31-16,80-44,80-44,56.25-53.69,63-63,42.76-36.26,46-40,11.93-47.623,8-59"/>
                <path data-name="Фигура 4" class="cls-1" d="M-24,127S77.148,164.982,92,169s36.872,16.909,73,12,66.936-4.875,58-22c0,0-11.308-11-12,2s7,40,7,40,6.119,32.968,12,46,31.526,48.223,35,57,25.129,31.515,3,73-20.434,38.073-18,63,10.594,57.292,18,69,7,13,7,13,58.971-14.542,91.964.985Q368,523.472,369,524c32.536,17.157,33.8,17.192,44,41s19.138,50.22,15,81-33.207,96.579-37,103-39.608,86.91-97,139-62.8,57.714-64,61-34.453,31.735-61,38-53.645,35.24-54,41"/>
                <path data-name="Фигура 5" class="cls-1" d="M1,25l7-7L28,37s40.429-18.3,59,9,16,23,16,23l22-13,49,53s13.92-13.924,16-14,31.032-13.494,38-11a56.555,56.555,0,0,1,12,6s-27.508,39.609-28,58,13,82,13,82,39.748,7.377,54,10,46,8,46,8l68,9-2,27,24,3s-8.353,33.517-6,38,32-4,32-4l7,2s-0.422-8.919,5-23,45.18-92.482,76-117l58,59,19-21s43.611,49.533,48,53,66,64,66,64,51.348,75.357,59,88,35,48,35,48-22.088,27.1-30,45-5.183,27.565-12,38-17.548,38.855-14,49,9.912,10.769,14,17a127.606,127.606,0,0,1,8,15s32.137,63.271,38,83,16,53,16,53,17.388,26.344,21,48-4.168,53.326,5,74,39,48,39,48l-7,84"/>
                <path data-name="Фигура 6" class="cls-1" d="M349-9L519,131l24-30,46,41,19-22,14,11-23,30,14,15-10,8,21,22,38-39,30,31,18-9s90.659-10.869,125-10c0,0,70.928-9.63,148,13s77.77,19.633,118,43c0,0,36.27-57.543,75-73s76.79-30.078,90-39S1405.32,2.938,1409-8"/>
                <path data-name="Фигура 7" class="cls-1" d="M900-8s2.013,51.944-7,69-40.938,65.714-24,97,14.086,71.977,16,77,6.422,43.122,6,46-12.085,20.268-13,23-14,32-14,32,33.232,1.546,35,5-2.594,33.375,0,37,37.955,9.086,39,12-12,38-12,38v9s27.077,21.669,38,39c0,0-5.625,13.939-38,31,0,0-34.981,20.7-35,24s2.105,7.479,6,12,10.5,41.341,11,53,4.13,59.073,0,77c0,0,6.2,72.126,5,86s-6.157,65.136-5,78a356.9,356.9,0,0,1-1,64c-2.786,24.041-11.959,123.1-16,129"/>
                <path data-name="Фигура 8" class="cls-1" d="M1083-5s9.4,44.957,10,47-8.38-5.223-9-1-19,74-19,74-59.58,1.049-72.692-1.667A12.678,12.678,0,0,1,991,113c-9.712-3.132-3,71.68-3,79,0,0-7.647,99.142-10,113,0,0,41.2-6.834,80,43,0,0,40.25,44.529,50,68s16.04,42.266,27,60,6.33,36.054,6,40l-9,26s31,2.989,43-4,28.97-21.087,33-22,19.17-3.737,22-2,30.54,0.313,37,2,19.61,40.991,21,41-9.31,2.318-9,14,3.47,21.369,4,24,19.61,27.4,26,35,27.01-4.755,31-8,15.11,34.348,18,37,6.56,2.45,7,11,6,42,6,42l25-2,1,19,27-2s-31.29,54.383-29,60,37.47,12.409,61,16,40.39,6.7,44,7c0,0-4.19,25.787-4,29s28,13,28,13-1.02,13.621-7,19-12,10-12,10l8,15s42.81,27.43,52,45,29.54,28.935,35,16,31-75,31-75l55,23s79.19,107.98,82,123"/>
                <path data-name="Фигура 9" class="cls-1" d="M1275-10s29.88,52.893,42,74,54,73,54,73-48.61,44.256-66,47l-12,63s-78.84-1.019-97,6-38,15-38,15l29,36s-89.72,34.184-100,54c0,0-41.03-52.792-96-59H980s-5.816,22.614-15,30l-36,83-59-8-7-59-26,3s-31.874-63.44-36-72-3.525-7.913-8-7-41,23-41,23,8.852,9.749,8,13-27.837,26.3-38,29-20.336,24.821-27,32c-6.523,7.027-49.851,93.354-49.851,93.354s-0.117.461-.149,0.646c0,0-108.688-23.1-129-31l-3,8s-17.5-5.609-29-14-20.666-22.536-30-15c0,0,7.533,68.647-21,99,0,0-11.881,37.812-25,33,0,0-31.151-27.874-88-25,0,0-68.593,2.285-119,42,0,0-48.795,39.019-68,59S69.955,670.541,24,663c0,0-13.776.671-26-41"/>
                <path data-name="Фигура 10" class="cls-1" d="M1320-14s11.61,39.3,33,52,113.55,73.779,127,91,19,24,19,24l-54,33,8,61-38-9-4,37-18,5,16,24-46,14s-26.68,12.1-28,12-37-1-37-1,11.31,29.938,14,32c0,0-9.1,24.5-29,13l-19-12-27.93,7.447L1234,370s4.63,40.665,3,41,1,1,1,1l-57,13s17.1,54.35,17,57-3,3-3,3l11,33s-20.61,16.035-23,16-11,5-11,5,11.88,34.913,4,39-25,9-25,9l1,24s-51,10.342-64,20-21.65,12.8-42,29-17,17-17,17,9.26,8.481,12,17,33.67,78.56,34,85,20,90,20,90-22.92,28.27-31,38-32.24,21.972-71,30-32,8-32,8l24,84"/>
                <path data-name="Фигура 11" class="cls-1" d="M1652-8s-8.88,32.79,14,62,29.82,41.848,16,63-65.68,67.656-72,88-20.99,46.185-25,47,41.87,47.02,47,49,22.83,5.087,52,32,29.33,23.115,40,28c0,0-17.73,15.613-19,20s-12,18-12,18l68,44-39,62,8,6-29,44s29.37,19.461,34,30,6,13,6,13l-83,31s-4.54,65.6-13,76-22.24,89.6,3,134,121.83,176.71,126,193"/>
                <path data-name="Фигура 12" class="cls-1" d="M1760-10s-10.53,63.04-17,70c0,0,44.43,40.363,59,83l-27,20-16,20,28,53-33,73s16.11-3.847,26-1,3.79,3.937,14,5c0,0,23.44,25.892,29,27s12.27-8.375,15-6,6.31,24.156,3,30-20.46,56.629-20,62-3.08,73.945-3,76,0,27,0,27l12,41-38,13,29,76s11.95,49.3,17,51,10.51,1.348,11,4,22.33,3.667,24,4-8,86-8,86l71,25s-8.67,33.667-17,40-22.33,56.667-19,65-6.39,4.239-10,4-12.61,39.056-16,45-9.21,13.827-7,19-2.68,22.18-9,27"/>
                <path data-name="Фигура 13" class="cls-1" d="M2068,44l-88,32,14,45-22,2,14,51,4,37-54,29,29,48s-40.82,7.68-44,11,100,204,100,204l-190,68-178,57-188,26s-85.18-12.81-116,4c0,0-82.34-20.289-130-11,0,0-76.09-11.729-107-29,0,0-38.06-.983-52,20,0,0-48.64-29.361-68-35,0,0-5.858-2.729-2-19s15.55-56.066,6-69-73-89-73-89-49.819,14.093-57,14-26-70-26-70l-29,26-49-89,38-30-43-87-5-8-43,9s-14.662-72-33-109-49-95-49-95"/>
                <path data-name="Фигура 14" class="cls-1" d="M2056,595s-28.5,6.208-26,15-19.03,27.218-27,32-14,23-14,23-29.83-14.739-33-21-55.17-34.792-69-30-34,13-34,13l-22-57-132,43,23,92,13,5-24,98s92.24,53.05,99,54-4,38-4,38-117.17-55.793-146-63-145.9-24.832-161-27-97.02-23.5-103-18-45,91-45,91-24,30.357-70,48c0,0-13.34,1.468-9,13s27.7,81.7,27,97"/>
                <path data-name="Фигура 15" class="cls-1" d="M2064,693s-23.9-14.562-28-13-11.58,81.343-14,90-53.27,130.834-34,155c0,0-67.34,18.883-119,4s-160.67-76.65-181-82-61-19-61-19l-5-10-79-53s-74.59-80.83-73-107c0,0,6.79-35.149,21-47s87-112,87-112l38-52,34,19,44-67-50-32,28-42-40-28,56-57-47-76-4,4-38-45s43.59-30.1,27-73c0,0,1.69-35.476,7-56"/>
                <path data-name="Фигура 16" class="cls-1" d="M1558,1039s-101.68-53.448-139-81-47.42-52.545-59-64-140-148.162-144-148-10-6.348-7-20,5.16-90.02,10-122,21.99-144.6,23-150,6.63-95.584-41-137c0,0-31.48-48.647-101-78l-68,75s-17.72-15.817-128-15c0,0-69.48-23.148-102-23a431.042,431.042,0,0,0-66,51c-33.292,31.4-79.508,125.033-82,132,0,0,18.884,74.013,19,83,0,0-191.264,15-248,8,0,0-124.123,53.358-132,57s-134,70-134,70S60.8,751.182,25,761s-41,7-41,7"/>
                <path data-name="Фигура 17" class="cls-1" d="M1368,1028s-34.52-87.836-29-96a124.649,124.649,0,0,1,11-14s-30.65-16.076-36-17-24-17-24-17l35-25-41-45,15-10,9-24s2.71-25.487,5-28,38-37,38-37-13.85-43.583-8-53l-12-5s-50.01,27.316-56,33-11,10-11,10-5.77-15.435-16-20c0,0-3.36,2.524,0-11s12.05-41.954,20-49,19-18,19-18-5.17-6.895,1-12a104.36,104.36,0,0,1,13-9l-14-27s38.91-11.571,43-21,9-21,9-21l-34-3s-3.9-17.809-1-21,2.52-3.238,3-9-3.61-16.04-2-19,6.05-19.584,6-24,16.77-30.319,14-34-32-14-32-14l4-11s6.36-20.821,44-20,31.01-11.755,31-14-10-30-10-30-6.5-35.653-24-43l-30,25-4,1-3-51s-65.85,1.389-67,2,3.79-13.52,10-16,28.63-24.279,30-29v-2l-64,7-10-37-9,3s-9.44-14.286-12-18-21.96-21.285-26-30-18.8-32.6-24-37-13.15-17.688-18-19-20.4-21.183-20-26-11-56-11-56"/>
                <path data-name="Фигура 18" class="cls-1" d="M722,1037s24.965-33.69,35-40,28.87-26.292,29-36,2.557-73.554,5-79,25.119-85.568,28-91,12-25,12-25l-11-45s-14.194-28.27-9-31,33.742-31.212,41-32,12.522,7.414,17,9,40-7,40-7,0.958-62.628,1-65-8-39-8-39,8.583-.01,14-2,32.612-11.948,44-9,34.891-7.826,40-13,32-10,32-10,13.98,14.052,23,20,32,45,32,45l16-9-11-31,15-1s-0.05-13.965,3-19,6-10,6-10l-27-5s1.89-11.242,2-13,10-7,10-7-2.99-17.275,1-18,14-8,14-8l8-8,7-5s-5.66-23.531-6-29-2-23-2-23l21-13s-32.98-35.692-36-49l13-9-26-49,31-31s14.24-29.644,26-35,30-7,30-7,5.75-29.838,7-31,14.47-15.161,23-18,43.23-32.292,53-38,69-54,69-54l75-74"/>
                <path data-name="Фигура 19" class="cls-1" d="M458,1034s48.771-59.958,52-63,72.573-44.39,76-51,29-93,29-93,15.8-54.331,31-70,43-64,43-64l3-6s-33.958-14.425-23-54l5-86s-17.979-67.238-23-85l10-16s-25.2-12.548-27-26-18-48-18-48l-13-21,42-19-19-25,19-12,14-21s26.835-23.7,31-26,28-12,28-12l-9-46S679.677,83.559,677,81L650,94,608,59,593,45s44.561-60.992,46-62"/>
                <path data-name="Фигура 20" class="cls-1" d="M220,1064s43.721-66.538,50-69,84.91-61.273,95-68,77-61,77-61l88-71,54-39s54.976-40.7,57-42,50-26,50-26,38.992-31.862,45-37,23-36,23-36-75.112-36.638-78-40-5-33-5-33h9l5-10,7-8s-11.119-23.319-3-34l-9-18,16,1,17-41s0.306-5.928,2-7,16.605-22.8,23-28a87.327,87.327,0,0,1,14-9l-8-14,37-25-8-19,37-28-32-65s13.431-8.32,25-8,17.566-1,19-2-2-43-2-43,104.349-3.314,108-3,7-34,7-34l6-52h9l3-107"/>
                <path data-name="Фигура 21" class="cls-1" d="M-29,1054s78.251-73.255,108-73,46-13,46-13-13.343-31.951-14-41-5.028-34.141-11-48-56.663-76.879-53-78,53-31,53-31,98.488-73.547,101-74,39-6,39-6l50,6-6,23,22-5,11-42,15-12-5-13-8,1-9-24-7-8-13,4-1-9s81.915-42.184,90-46,29.981-19.028,35-24,17-32,17-32-41.375-25.877-47-27,7-23,7-23,12.109-1.432,12-8-1.182-6.592-10-4a27.978,27.978,0,0,1-16,0,7.158,7.158,0,0,0-3,2c-1.431,1.56-49-14-49-14l-21-3,24-56-28-11s8.075-38.884,15-66a456.777,456.777,0,0,0,10-55s-2.408-.086,15-9,70-47,70-47,12.4,8.746,17,6,92-64,92-64l-7-14s6.984-27.605,12-51,11-78,11-78"/>
                <path data-name="Фигура 22" class="cls-1" d="M316,1030s45.636-30.537,51-37,37-34,37-34l45-30-28-48-24,19,11-34,22-80,9-38s20.615,9.415,33,11,44-3,44-3l-11-52s34.993-4.927,39-5,7.7-.073,8-11,0-38,0-38l65-13-16-68-34,7-5-7-7,2-7-6-50,15,12-127s11.07-43.244,14-45,13.5-48.781,25-44,27,18,27,18l43-38,36,49s47.743-59.293,50-64,26-24,26-24l-7-46s46-3.1,56-21c0,0,2.577-16.1,18-17s29-3,29-3V180l28-4s-12.088-68.537-12-77-12.036-44.171-13-47S815-4,815-4"/>
                <path data-name="Фигура 23" class="cls-1" d="M-15,524s51-19.429,69-28,72.571-36.286,97-37,107.857-22.143,111-24,32.571-63,35-67,11-47,11-47l95,8,41-8s34,15.857,41,22l54-66,34,36s54.428-63.571,59-64,94,97,94,97,76.286,120.571,88,131c0,0-46.857,49.286-55,121l34,60s45.571-28,76-33,109.286-14.143,145,13,63.43,56.571,79,107,38.43,125.286,45,145,16.29,47.429,40,71,45,98,45,98"/>
                <path data-name="Фигура 24" class="cls-1" d="M828,1039s-22.894-68.3-20-84c0,0,100.356,3.3,109,2s7.892-33.169,11-38c0,0,15.794-31.175,14-45l27-11s43.02-5.443,45-6-13-37-13-37l11-9-35-81,18,2,29-13-15-23s51.95-47.627,61-52,49-22,49-22,23.16,32.233,28,49,4,23,4,23l52,33s10.35,19.764,13,19,77.8,27.312,88,31,75,9,75,9l-17-129s8.43-32.848,21-35,20.67,8.017,28,2,18-38,18-38,29.4-60.746,34-67,51-66,51-66-13.03-21.181-9-38c0,0,23.54-18.16,22-41s-2.26-50.21,19-80,34-38,34-38-34.34-48.56-45-56l-10-10,28-24,31-33-45-51,55-38,10,11s23.02-18.242,23-23,4-43,4-43"/>
                <path data-name="Фигура 25" class="cls-1" d="M467,1021l13-19-31-72,89-47-45-60,38-28-18-40s53.122-33.961,60-48-4-7-4-7l48,15V694s43.2-7.289,51-15l3-9s-11.278-32.848-1-53c0,0,39.894,8.3,43,14s32.888-70.119,33-79l-8-6,23-47-13-6s32.054-48.115,43-46l3,8,33-27-3-8,16-8v-5l11-2-18-69s21.182-5.793,28-2,32-54,32-54L878,175s-22.443-17.606-11-57,20-44,20-44,24.907-63.407,12-84"/>
            </svg>